<?xml version="1.0" standalone="no"?>
<!DOCTYPE svg PUBLIC "-//W3C//DTD SVG 20010904//EN"
 "http://www.w3.org/TR/2001/REC-SVG-20010904/DTD/svg10.dtd">
<svg version="1.0" xmlns="http://www.w3.org/2000/svg"
 width="1024.000000pt" height="1024.000000pt" viewBox="0 0 1024.000000 1024.000000"
 preserveAspectRatio="xMidYMid meet">
<metadata>
Created by potrace 1.11, written by Peter Selinger 2001-2013
</metadata>
<g transform="translate(0.000000,1024.000000) scale(0.100000,-0.100000)"
fill="#000000" stroke="none">
<path d="M1698 6713 c-63 -18 -114 -70 -127 -131 -5 -26 -10 -141 -9 -257 1
-370 20 -399 366 -536 70 -28 141 -57 157 -64 57 -24 158 -65 690 -280 99 -40
254 -103 345 -140 91 -37 271 -110 400 -162 129 -52 243 -99 253 -105 14 -7
-92 -53 -495 -215 -282 -112 -526 -211 -543 -218 -16 -7 -178 -73 -360 -145
-181 -73 -343 -138 -360 -145 -16 -7 -84 -34 -150 -61 -131 -52 -185 -83 -227
-129 -67 -71 -77 -127 -75 -409 2 -213 4 -234 23 -271 28 -53 93 -93 160 -98
67 -5 105 9 529 193 193 83 555 239 805 347 250 107 469 201 485 208 17 8 147
64 290 125 143 61 278 120 300 129 22 10 132 58 245 106 263 112 312 137 365
187 77 70 88 115 90 365 4 390 -9 411 -347 562 -26 11 -50 21 -53 21 -2 0 -33
13 -67 29 -35 15 -187 81 -338 146 -151 64 -293 125 -315 135 -22 10 -74 32
-115 50 -41 18 -88 38 -105 45 -16 8 -163 71 -325 140 -581 250 -646 278 -684
296 -22 11 -43 19 -47 19 -5 0 -36 13 -71 29 -35 17 -126 57 -203 89 -154 66
-184 79 -265 115 -95 42 -154 50 -222 30z"/>
<path d="M5815 6720 c-72 -16 -125 -64 -144 -133 -9 -32 -12 -111 -9 -283 4
-219 6 -243 26 -287 37 -81 108 -136 250 -193 173 -69 1030 -416 1057 -428 17
-8 145 -60 285 -116 140 -56 269 -108 285 -115 17 -8 97 -41 178 -73 l148 -59
-33 -16 c-18 -8 -69 -29 -113 -46 -44 -18 -89 -36 -100 -41 -11 -5 -180 -73
-375 -150 -195 -78 -368 -147 -385 -154 -16 -7 -84 -35 -150 -61 -66 -26 -133
-53 -150 -60 -16 -7 -156 -63 -310 -125 -154 -62 -291 -117 -305 -123 -14 -5
-30 -11 -37 -13 -25 -5 -139 -67 -168 -91 -92 -77 -108 -149 -103 -458 3 -210
4 -222 26 -258 47 -75 148 -108 245 -80 26 8 247 100 490 205 243 104 552 237
687 295 135 57 259 111 275 118 17 8 230 101 475 206 245 105 464 199 487 210
23 10 44 19 48 19 3 0 24 9 48 20 23 10 105 46 182 80 174 76 214 99 259 151
61 72 70 116 70 354 0 116 -2 229 -5 251 -13 94 -78 178 -179 229 -25 12 -187
83 -360 158 -960 412 -1558 670 -1585 682 -16 8 -194 84 -395 170 -201 87
-383 165 -405 175 -81 37 -158 51 -210 40z"/>
</g>
</svg>
